<?xml version="1.0" encoding="UTF-8" standalone="no"?>
<!-- Generator: Gravit.io -->
<svg xmlns="http://www.w3.org/2000/svg" xmlns:xlink="http://www.w3.org/1999/xlink" style="isolation:isolate" width="2200.9999999999995" height="1915.6474071344628"><g transform="translate(0,0)"><g transform="translate(0,0)"><path d=" M 716.7452010143096 1910.6474054547728 C 677.9792098033683 1720.3463800641503 609.6292342174308 1561.9823663922753 526.8421858775896 1415.2074640485228 C 465.4352034557121 1306.3353937360253 394.298210047509 1205.8444269391503 328.4782027232896 1100.2694757672728 C 306.50618734243085 1065.0253961774315 287.5442122447746 1027.7924249860253 266.4312056529796 991.2153986188428 C 224.21520223500897 918.0784357282128 189.9872054088371 833.280401060244 192.1622084605996 723.2833917829028 C 194.2872084605949 615.810430357119 225.37020101430585 529.5994013043846 270.1921919810996 459.11139471259276 C 343.91121663930585 343.1764276715721 467.3932112682121 248.12241155829088 633.0761946666496 223.14241583075275 C 768.5421980846183 202.71841985907213 895.5512312877433 237.2244165631737 985.6192244518096 289.89041692938275 C 1059.2192610728996 332.92841131415025 1116.215232752587 390.41742498602525 1159.5392073619596 458.17041570868275 C 1204.759178065087 528.8864191266503 1235.8982161510246 612.4304254743065 1238.5101546275896 721.4024103375928 C 1239.8471907603996 777.2324274274315 1230.705222986962 828.9343927594628 1217.8261946666496 871.8203790875928 C 1204.7922591197746 915.2294367047753 1183.830222986962 951.5153864118065 1165.1801985728996 990.2744196149328 C 1128.7741927135246 1065.9334161969628 1083.131248377587 1135.2564142438378 1037.3252181041496 1204.6204279157128 C 900.8882063853996 1411.2263849469628 772.8291853893058 1621.9303644391503 716.7452010143096 1910.6474054547728 Z  M 440.3519410193096 722.6523082351728 C 440.351941019314 570.8756696081217 563.5753023922617 447.65230823517396 715.3519410193096 447.65230823517277 C 867.1285796463663 447.65230823517396 990.3519410193142 570.8756696081217 990.3519410193096 722.6523082351728 C 990.3519410193142 874.4289468622263 867.1285796463663 997.6523082351741 715.3519410193096 997.6523082351728 C 563.5753023922617 997.6523082351741 440.351941019314 874.4289468622263 440.3519410193096 722.6523082351728 Z " fill-rule="evenodd" fill="rgb(232,30,37)" style="mix-blend-mode:sin;"/><g opacity="0.09"><path d=" M 716.8911921519915 1915.6474071344628 C 836.9966504570757 1802.1180922100934 910.0461216904245 1695.4302190724338 963.2610624400917 1589.9723707645721 C 1002.7348750799138 1511.7481742599734 1028.3943186238494 1434.6539923342566 1061.997358083271 1356.6763168469192 C 1073.2155608614353 1330.645262091196 1088.2345263449213 1304.5832546436454 1101.1366431895608 1278.1395272065483 C 1126.9349568306884 1225.264476722351 1167.8173512782673 1168.93930663013 1255.5625997439256 1111.6353221917384 C 1341.2943303891027 1055.6462324896288 1431.962406729232 1020.6743128208096 1520.560184598249 998.647413958272 C 1666.2797877157277 962.4181098707186 1832.740961122648 954.0445838156998 1975.7908151195638 996.9248661519263 C 2092.7513313437285 1031.9848163574086 2160.4000543026305 1093.1670535129906 2186.296184198189 1151.4319389716497 C 2207.4563900485728 1199.0444609925357 2204.9261224180736 1248.6638638525576 2184.169108672055 1299.072957647162 C 2162.505326475649 1351.687019938723 2120.3024495613745 1406.3053128618953 2036.9276949177904 1464.6881666455051 C 1994.2111451840178 1494.5992800684012 1946.9162324822794 1518.786520533487 1903.7385404402476 1537.0575267353538 C 1860.0358407785016 1555.5521166553526 1816.0011189215215 1567.6056232516698 1771.7533034172664 1581.7463514510118 C 1685.37963650206 1609.3493805961652 1597.08212764472 1630.483782491985 1508.6309492524883 1651.5846440497025 C 1245.1722143907932 1714.4350572573328 984.7493705065997 1782.2825935118258 716.8911921519915 1915.6474071344628 Z  M 1441.044201022342 1195.2805330803449 C 1559.8804155139892 1115.19559003338 1748.2045200978184 1091.8709947749187 1861.330782785983 1143.2265783629582 C 1974.457045474151 1194.5821619510014 1969.8212889773217 1301.2951949618391 1850.9850744856744 1381.380138008804 C 1732.1488599940305 1461.4650810557728 1543.8247554102013 1484.7896763142335 1430.6984927220333 1433.4340927261906 C 1317.5722300338684 1382.0785091381513 1322.2079865306978 1275.3654761273135 1441.044201022342 1195.2805330803449 Z " fill-rule="evenodd" fill="rgb(0,0,0)" style="mix-blend-mode:sin;"/></g><g style="isolation:isolate"/></g></g></svg>
